<?xml version="1.0" standalone="no"?>
<!DOCTYPE svg PUBLIC "-//W3C//DTD SVG 20010904//EN"
 "http://www.w3.org/TR/2001/REC-SVG-20010904/DTD/svg10.dtd">
<svg version="1.0" xmlns="http://www.w3.org/2000/svg"
 width="733.000000pt" height="733.000000pt" viewBox="0 0 733.000000 733.000000"
 preserveAspectRatio="xMidYMid meet">
<metadata>
Created by potrace 1.14, written by Peter Selinger 2001-2017
</metadata>
<g transform="translate(0.000000,733.000000) scale(0.100000,-0.100000)"
fill="#000000" stroke="none">
<path d="M2424 6880 c-11 -4 -36 -32 -54 -62 -63 -100 -154 -216 -182 -233
-27 -16 -82 -87 -143 -187 -17 -27 -48 -66 -68 -86 -20 -20 -50 -50 -66 -67
-46 -47 -150 -128 -183 -142 -16 -7 -57 -37 -91 -67 -34 -29 -78 -61 -97 -71
-19 -9 -51 -29 -70 -44 -19 -14 -52 -34 -74 -44 -22 -10 -65 -35 -96 -56 -31
-21 -70 -46 -88 -55 -17 -9 -48 -31 -68 -49 -21 -17 -52 -41 -70 -52 -110 -68
-153 -106 -165 -144 -21 -70 -13 -75 99 -66 53 4 144 7 202 6 l105 -2 42 35
c22 20 45 36 50 36 5 0 19 -11 32 -23 24 -26 144 -54 180 -42 11 3 34 29 51
57 l32 51 25 -45 25 -45 132 -5 c72 -3 158 -1 191 3 33 5 88 6 122 3 l62 -6 8
-42 c7 -31 13 -41 28 -41 29 0 38 -92 13 -143 -9 -20 -17 -53 -18 -74 0 -33 5
-39 50 -67 28 -17 50 -34 50 -37 0 -4 -24 -51 -54 -105 l-54 -98 9 -113 9
-112 -30 -64 c-16 -35 -30 -75 -30 -87 0 -48 -25 -131 -47 -158 -26 -32 -28
-44 -13 -81 8 -21 16 -26 44 -26 29 0 41 7 67 40 20 25 41 40 54 40 12 0 39
11 59 25 21 14 55 34 77 45 84 43 96 113 60 354 -18 117 -22 131 -47 151 -24
19 -25 24 -15 44 7 12 10 29 7 36 -3 8 4 25 15 39 14 18 17 31 11 48 -4 12 -5
107 -1 210 5 160 9 191 26 220 l19 33 77 -4 c75 -3 77 -2 137 37 33 23 85 50
116 61 64 25 85 18 144 -44 51 -53 84 -68 136 -60 53 8 104 47 104 80 0 14 6
29 13 35 23 20 82 59 118 79 59 33 82 77 53 105 -18 19 -45 14 -85 -14 -16
-11 -35 -16 -48 -13 -12 3 -47 -4 -79 -15 -75 -27 -143 -40 -277 -54 -136 -14
-158 -14 -216 -4 -40 7 -49 5 -76 -18 -28 -24 -33 -25 -46 -11 -9 8 -31 15
-50 15 -38 0 -49 9 -66 59 -9 28 -8 46 8 100 28 93 37 242 20 328 -7 37 -12
73 -10 78 24 81 32 436 11 515 -6 25 -14 59 -17 75 -3 17 -11 33 -17 37 -14
10 -56 9 -82 -2z m-130 -506 c3 -9 6 -55 6 -104 0 -84 2 -90 35 -139 19 -28
35 -58 35 -68 0 -9 -12 -34 -27 -56 l-27 -38 13 -89 c19 -137 2 -200 -54 -200
-22 0 -43 -8 -55 -20 -11 -11 -33 -20 -49 -20 -29 0 -34 -5 -89 -80 -1 -2 -16
10 -32 27 -16 17 -40 35 -52 38 -13 4 -32 16 -43 26 -18 16 -26 17 -58 7 -27
-8 -46 -8 -76 0 -21 7 -58 12 -82 12 -23 0 -69 6 -102 12 l-59 12 -47 -53
c-49 -56 -71 -61 -71 -15 0 44 38 101 96 146 139 106 329 271 444 383 69 68
140 130 157 139 18 9 40 31 49 49 9 17 22 35 28 39 19 13 54 9 60 -8z"/>
<path d="M4910 6800 c-46 -6 -70 -17 -140 -67 -47 -33 -121 -82 -165 -108
-130 -76 -304 -204 -329 -242 -13 -19 -54 -59 -91 -90 -37 -30 -72 -67 -78
-81 -7 -15 -27 -47 -45 -72 -99 -135 -115 -169 -125 -272 -10 -93 -9 -103 23
-235 36 -153 54 -191 130 -275 40 -45 62 -61 100 -72 27 -8 58 -12 70 -9 15 4
29 -2 46 -21 27 -28 26 -28 134 -34 149 -7 258 -3 321 13 72 18 191 75 229
108 36 32 72 85 67 100 -2 6 -26 17 -53 23 -42 9 -53 8 -82 -9 -27 -16 -43
-18 -90 -12 -31 4 -104 10 -162 13 -103 7 -134 16 -160 46 -7 9 -24 16 -39 16
-34 0 -181 133 -218 198 -14 26 -39 68 -55 93 -23 38 -28 57 -28 109 0 34 -5
80 -12 102 -11 38 -11 40 19 64 18 13 33 37 37 55 18 92 182 252 334 326 30
14 61 37 69 50 12 18 19 21 29 12 10 -8 21 -9 41 -1 42 17 151 8 217 -18 47
-18 63 -20 83 -11 13 6 32 11 43 11 24 0 63 -49 56 -73 -3 -13 13 -32 61 -70
56 -43 72 -63 100 -124 20 -43 41 -74 52 -78 18 -5 20 -16 20 -109 0 -57 5
-115 10 -129 10 -26 -6 -131 -29 -192 -5 -14 -9 -48 -8 -76 0 -39 -7 -67 -35
-122 -19 -40 -38 -89 -41 -110 -2 -20 -21 -74 -40 -119 -25 -57 -32 -86 -26
-98 12 -22 -6 -56 -76 -142 -30 -38 -65 -91 -76 -118 -14 -33 -31 -56 -54 -69
-18 -11 -42 -38 -53 -60 -26 -51 -140 -209 -203 -282 -26 -31 -48 -62 -48 -69
0 -7 -26 -38 -57 -70 -98 -98 -278 -291 -287 -308 -21 -41 -71 -82 -98 -82
-22 0 -48 -18 -112 -78 -45 -43 -103 -90 -127 -103 -71 -40 -180 -82 -229 -88
-39 -5 -45 -9 -48 -32 -3 -22 6 -33 46 -62 63 -45 114 -54 173 -31 61 24 156
90 164 113 3 12 19 21 41 26 46 8 126 82 166 153 20 35 41 57 62 66 17 7 56
41 86 75 30 35 83 93 117 129 61 65 86 96 168 203 22 28 77 91 123 139 66 70
84 95 89 126 9 57 48 114 77 114 20 0 41 23 106 116 45 63 91 137 101 163 10
27 32 62 48 79 17 17 31 39 31 49 0 10 16 43 35 73 19 30 37 71 41 90 4 19 17
46 29 60 33 37 175 316 175 345 0 13 8 29 19 34 22 12 34 79 35 211 1 77 5
102 22 130 11 19 23 45 26 57 9 35 -19 163 -51 228 -16 33 -32 78 -36 100 -8
44 -55 96 -128 142 -23 14 -55 38 -72 54 -21 19 -52 33 -100 44 -38 8 -110 29
-158 45 -91 31 -111 33 -207 20z"/>
<path d="M2820 3600 c-70 -18 -207 -83 -280 -133 -78 -54 -289 -257 -349 -336
-78 -103 -76 -99 -51 -126 29 -31 21 -75 -13 -75 -33 0 -43 -11 -51 -51 -5
-27 0 -47 19 -85 14 -27 25 -65 25 -85 0 -31 5 -38 28 -48 15 -7 48 -39 73
-71 35 -48 53 -63 91 -76 26 -8 51 -20 55 -26 3 -7 -10 -25 -30 -42 -21 -17
-37 -38 -37 -46 0 -27 -20 -40 -45 -28 -28 12 -62 -4 -160 -77 -129 -97 -213
-201 -185 -229 14 -14 13 -53 -2 -63 -7 -4 -23 -6 -35 -5 -25 4 -62 -41 -94
-114 -12 -27 -27 -55 -33 -63 -6 -7 -20 -50 -32 -95 -19 -72 -20 -87 -9 -136
7 -30 16 -84 20 -119 4 -35 15 -87 24 -114 13 -42 23 -54 56 -71 25 -13 48
-36 62 -62 19 -34 36 -47 103 -79 75 -34 86 -37 140 -31 49 6 65 3 101 -16 67
-34 217 -35 306 -2 36 14 87 29 113 35 31 7 54 18 63 32 8 12 48 39 88 60 41
21 93 52 116 70 23 18 66 51 95 73 29 23 74 66 98 96 25 31 65 68 90 84 54 35
150 130 167 164 73 156 81 178 88 259 l7 84 -38 33 c-38 31 -39 33 -39 102 0
80 -21 120 -106 202 -27 26 -49 55 -49 64 0 12 -35 34 -115 72 -63 30 -115 59
-115 65 0 5 21 22 46 37 102 60 122 78 129 121 6 35 14 46 63 78 51 34 62 48
104 133 54 110 65 163 48 224 -8 28 -9 50 -3 62 6 12 6 36 1 62 -8 34 -13 42
-32 42 -12 0 -30 6 -39 13 -14 10 -15 18 -7 47 15 52 14 53 -42 80 -29 14 -70
40 -91 59 -37 33 -40 34 -73 22 -39 -14 -76 -8 -149 24 -49 21 -51 21 -115 5z
m50 -254 c97 -57 131 -86 196 -167 l54 -67 -10 -98 c-15 -137 -31 -178 -85
-210 -24 -14 -47 -34 -50 -44 -3 -10 -24 -46 -46 -80 -22 -34 -51 -84 -65
-111 -15 -27 -30 -49 -34 -49 -5 0 -39 39 -76 86 -65 81 -70 85 -103 82 -30
-2 -36 1 -41 20 -3 15 -20 30 -46 42 l-42 18 -34 -24 c-33 -24 -34 -24 -108
-9 -104 22 -142 35 -137 48 2 7 41 22 86 34 46 12 85 24 87 26 3 3 -12 33 -33
68 -51 87 -50 125 4 224 7 11 21 41 33 67 11 25 33 54 47 63 36 24 212 85 245
85 17 0 31 8 38 20 16 29 36 25 120 -24z m-141 -972 c70 -47 110 -63 143 -57
39 7 88 -32 88 -70 0 -35 88 -147 134 -169 25 -12 28 -19 30 -68 1 -30 6 -89
11 -131 7 -68 10 -77 36 -92 51 -29 34 -73 -31 -79 -32 -3 -38 -8 -70 -74 -40
-83 -150 -193 -212 -213 -21 -7 -40 -16 -43 -21 -3 -4 -35 -25 -73 -45 -65
-37 -69 -37 -144 -31 -74 6 -77 6 -95 -20 -18 -25 -22 -26 -56 -15 -19 7 -43
23 -51 37 -10 14 -26 24 -40 24 -12 0 -31 9 -41 20 -10 11 -30 20 -44 20 -44
1 -105 35 -177 100 -38 35 -81 67 -96 72 -33 12 -56 69 -40 102 6 11 13 75 16
141 l5 121 51 100 c84 168 198 259 416 334 30 11 64 26 76 34 15 11 45 16 88
16 58 0 71 -4 119 -36z"/>
<path d="M5360 3610 c-46 -6 -70 -17 -140 -67 -47 -33 -121 -82 -165 -108
-130 -76 -304 -204 -329 -242 -13 -19 -54 -59 -91 -90 -37 -30 -72 -67 -78
-81 -7 -15 -27 -47 -45 -72 -99 -135 -115 -169 -125 -272 -10 -93 -9 -103 23
-235 36 -153 54 -191 130 -275 40 -45 62 -61 100 -72 27 -8 58 -12 70 -9 15 4
29 -2 46 -21 27 -28 26 -28 134 -34 149 -7 258 -3 321 13 72 18 191 75 229
108 36 32 72 85 67 100 -2 6 -26 17 -53 23 -42 9 -53 8 -82 -9 -27 -16 -43
-18 -90 -12 -31 4 -104 10 -162 13 -103 7 -134 16 -160 46 -7 9 -24 16 -39 16
-34 0 -181 133 -218 198 -14 26 -39 68 -55 93 -23 38 -28 57 -28 109 0 34 -5
80 -12 102 -11 38 -11 40 19 64 18 13 33 37 37 55 18 92 182 252 334 326 30
14 61 37 69 50 12 18 19 21 29 12 10 -8 21 -9 41 -1 42 17 151 8 217 -18 47
-18 63 -20 83 -11 13 6 32 11 43 11 24 0 63 -49 56 -73 -3 -13 13 -32 61 -70
56 -43 72 -63 100 -124 20 -43 41 -74 52 -78 18 -5 20 -16 20 -109 0 -57 5
-115 10 -129 10 -26 -6 -131 -29 -192 -5 -14 -9 -48 -8 -76 0 -39 -7 -67 -35
-122 -19 -40 -38 -89 -41 -110 -2 -20 -21 -74 -40 -119 -25 -57 -32 -86 -26
-98 12 -22 -6 -56 -76 -142 -30 -38 -65 -91 -76 -118 -14 -33 -31 -56 -54 -69
-18 -11 -42 -38 -53 -60 -26 -51 -140 -209 -203 -282 -26 -31 -48 -62 -48 -69
0 -7 -26 -38 -57 -70 -98 -98 -278 -291 -287 -308 -21 -41 -71 -82 -98 -82
-22 0 -48 -18 -112 -78 -45 -43 -103 -90 -127 -103 -71 -40 -180 -82 -229 -88
-39 -5 -45 -9 -48 -32 -3 -22 6 -33 46 -62 63 -45 114 -54 173 -31 61 24 156
90 164 113 3 12 19 21 41 26 46 8 126 82 166 153 20 35 41 57 62 66 17 7 56
41 86 75 30 35 83 93 117 129 61 65 86 96 168 203 22 28 77 91 123 139 66 70
84 95 89 126 9 57 48 114 77 114 20 0 41 23 106 116 45 63 91 137 101 163 10
27 32 62 48 79 17 17 31 39 31 49 0 10 16 43 35 73 19 30 37 71 41 90 4 19 17
46 29 60 33 37 175 316 175 345 0 13 8 29 19 34 22 12 34 79 35 211 1 77 5
102 22 130 11 19 23 45 26 57 9 35 -19 163 -51 228 -16 33 -32 78 -36 100 -8
44 -55 96 -128 142 -23 14 -55 38 -72 54 -21 19 -52 33 -100 44 -38 8 -110 29
-158 45 -91 31 -111 33 -207 20z"/>
</g>
</svg>
